<svg xmlns="http://www.w3.org/2000/svg" viewBox="0 0 640 400" role="img" aria-label="Ambulance driving along a road toward a hospital">
  <rect width="640" height="400" rx="24" fill="#fef2f2"/>
  <circle cx="500" cy="90" r="46" fill="#fecaca"/>
  <rect x="430" y="120" width="170" height="190" rx="8" fill="#ffffff" stroke="#fca5a5" stroke-width="3"/>
  <rect x="505" y="140" width="20" height="60" rx="4" fill="#dc2626"/>
  <rect x="485" y="160" width="60" height="20" rx="4" fill="#dc2626"/>
  <rect x="452" y="226" width="26" height="34" rx="3" fill="#fecaca"/>
  <rect x="552" y="226" width="26" height="34" rx="3" fill="#fecaca"/>
  <rect x="496" y="250" width="38" height="60" rx="3" fill="#fca5a5"/>
  <rect x="0" y="310" width="640" height="90" fill="#374151"/>
  <g fill="#f9fafb">
    <rect x="30" y="352" width="60" height="6" rx="3"/>
    <rect x="150" y="352" width="60" height="6" rx="3"/>
    <rect x="270" y="352" width="60" height="6" rx="3"/>
    <rect x="390" y="352" width="60" height="6" rx="3"/>
    <rect x="510" y="352" width="60" height="6" rx="3"/>
  </g>
  <g>
    <rect x="70" y="204" width="230" height="100" rx="14" fill="#ffffff" stroke="#9ca3af" stroke-width="3"/>
    <path d="M300 230h50l36 34v40H300z" fill="#ffffff" stroke="#9ca3af" stroke-width="3" stroke-linejoin="round"/>
    <path d="M312 238h34l24 26h-58z" fill="#bfdbfe"/>
    <rect x="70" y="262" width="316" height="14" fill="#dc2626"/>
    <rect x="160" y="222" width="14" height="40" rx="3" fill="#dc2626"/>
    <rect x="147" y="235" width="40" height="14" rx="3" fill="#dc2626"/>
    <rect x="210" y="190" width="46" height="14" rx="7" fill="#ef4444"/>
    <circle cx="140" cy="308" r="26" fill="#111827"/>
    <circle cx="140" cy="308" r="11" fill="#d1d5db"/>
    <circle cx="332" cy="308" r="26" fill="#111827"/>
    <circle cx="332" cy="308" r="11" fill="#d1d5db"/>
  </g>
  <g stroke="#ef4444" stroke-width="5" stroke-linecap="round" fill="none">
    <path d="M200 164l-12-14"/>
    <path d="M233 158v-20"/>
    <path d="M266 164l12-14"/>
  </g>
</svg>
